#!OML:ASF H:\Pregnant\Project 1\Capture day 1\Session 1\femalepreg.ASF
:FULLY-SPECIFIED
:DEGREES
255
root 5.56752 15.9064 5.0878 -158.025 4.91567 -179.706
lowerback -14.418 0.517379 0.679421
upperback -3.19168 0.937116 0.485997
thorax 4.70629 0.63057 0.309909
lowerneck -13.1975 4.1572 7.96715
upperneck 33.1894 7.11581 0.38756
head 13.7229 5.15607 0.12588
rclavicle -1.1281e-014 -4.17448e-015
rhumerus -30.9331 0.141174 -80.5589
rradius 29.6792
rwrist -2.69461
rhand -11.5988 -16.5999
rfingers 7.12502
rthumb 14.4436 -46.0773
lclavicle -1.1281e-014 -4.17448e-015
lhumerus -35.9473 1.32864 75.3665
lradius 46.6202
lwrist 43.0419
lhand -23.5904 -6.49871
lfingers 7.12502
lthumb 2.87289 23.4617
rfemur -30.7742 19.7949 19.8646
rtibia 33.3382
rfoot -19.2622 -8.18794
rtoes -10.8143
lfemur -50.9832 -6.58328 -16.1946
ltibia 30.2248
lfoot -7.7644 8.58952
ltoes -23.7451
256
root 5.56332 15.8892 4.99305 -158.16 5.22322 -179.404
lowerback -14.6853 0.424868 0.486157
upperback -3.24138 0.859059 0.318406
thorax 4.79962 0.593981 0.232679
lowerneck -13.1032 4.54824 8.31529
upperneck 32.9863 7.53373 0.518044
head 13.6486 5.38056 0.175351
rclavicle -1.881e-014 2.18663e-015
rhumerus -31.5269 0.312088 -80.6849
rradius 29.8182
rwrist -2.69495
rhand -11.7793 -16.5537
rfingers 7.12502
rthumb 14.2696 -46.0435
lclavicle -1.881e-014 2.18663e-015
lhumerus -35.7044 0.995535 75.3772
lradius 46.051
lwrist 43.1104
lhand -23.6334 -6.53096
lfingers 7.12502
lthumb 2.8314 23.43
rfemur -30.0084 19.9763 20.2594
rtibia 32.9844
rfoot -19.5496 -8.02351
rtoes -10.68
lfemur -50.2757 -6.6524 -15.92
ltibia 29.9174
lfoot -7.32586 8.61078
ltoes -23.5936
257
root 5.55833 15.8736 4.89764 -158.292 5.51051 -179.082
lowerback -14.9586 0.33097 0.304957
upperback -3.29107 0.77951 0.164332
thorax 4.89597 0.557347 0.161936
lowerneck -12.9546 4.95488 8.70819
upperneck 32.7215 7.9763 0.603397
head 13.5434 5.61236 0.198829
rclavicle 5.67313e-015 4.32357e-015
rhumerus -32.1456 0.473221 -80.777
rradius 30.001
rwrist -2.76081
rhand -11.988 -16.5008
rfingers 7.12502
rthumb 14.0686 -46.0047
lclavicle 5.67313e-015 4.32357e-015
lhumerus -35.4453 0.659798 75.4052
lradius 45.3972
lwrist 43.1693
lhand -23.6844 -6.57407
lfingers 7.12502
lthumb 2.78217 23.3875
rfemur -29.1903 20.1572 20.6728
rtibia 32.5481
rfoot -19.8064 -7.86038
rtoes -10.5507
lfemur -49.6356 -6.64898 -15.7066
ltibia 29.7824
lfoot -6.73776 8.2825
ltoes -22.7342
258
root 5.55252 15.8609 4.80164 -158.43 5.76779 -178.752
lowerback -15.2248 0.239985 0.13609
upperback -3.33606 0.703655 0.0115456
thorax 4.99342 0.522811 0.0854697
lowerneck -12.8078 5.38768 9.21874
upperneck 32.4274 8.45268 0.5956
head 13.4424 5.85755 0.171323
rclavicle 9.16894e-015 -2.48481e-015
rhumerus -32.7886 0.596158 -80.8363
rradius 30.2332
rwrist -2.87913
rhand -12.2112 -16.4534
rfingers 7.12502
rthumb 13.8535 -45.9721
lclavicle 9.16894e-015 -2.48481e-015
lhumerus -35.1576 0.293166 75.45
lradius 44.6663
lwrist 43.2258
lhand -23.7481 -6.59023
lfingers 7.12502
lthumb 2.72059 23.3722
rfemur -28.3031 20.3438 21.0949
rtibia 32.0151
rfoot -20.0142 -7.71209
rtoes -10.441
lfemur -49.0749 -6.59835 -15.5406
ltibia 29.8218
lfoot -6.08416 7.7126
ltoes -21.1669
259
root 5.54609 15.8517 4.70571 -158.576 5.98516 -178.432
lowerback -15.4797 0.146506 -0.0402508
upperback -3.37018 0.626558 -0.141336
thorax 5.09596 0.487316 0.0120866
lowerneck -12.6488 5.84463 9.81595
upperneck 32.0808 8.95701 0.520254
head 13.3313 6.11167 0.106206
rclavicle -1.37907e-014 -3.57812e-015
rhumerus -33.4373 0.653217 -80.8525
rradius 30.5011
rwrist -3.02474
rhand -12.4364 -16.3911
rfingers 7.12502
rthumb 13.6365 -45.9244
lclavicle -1.37907e-014 -3.57812e-015
lhumerus -34.8319 -0.104937 75.5162
lradius 43.8742
lwrist 43.2932
lhand -23.8273 -6.5667
lfingers 7.12502
lthumb 2.64413 23.3967
rfemur -27.3565 20.5438 21.509
rtibia 31.3953
rfoot -20.1554 -7.60035
rtoes -10.376
lfemur -48.6038 -6.53938 -15.4022
ltibia 30.0205
lfoot -5.43049 7.09233
ltoes -19.0918
260
root 5.539 15.8453 4.61018 -158.734 6.163 -178.135
lowerback -15.7182 0.047923 -0.244462
upperback -3.3887 0.547454 -0.294912
thorax 5.20582 0.449893 -0.0474876
lowerneck -12.4874 6.32382 10.4781
upperneck 31.687 9.4871 0.390922
head 13.2141 6.37265 0.0134208
rclavicle -3.47873e-015 -1.07344e-014
rhumerus -34.0768 0.640428 -80.8202
rradius 30.7844
rwrist -3.18631
rhand -12.6635 -16.3305
rfingers 7.12502
rthumb 13.4176 -45.8784
lclavicle -3.47873e-015 -1.07344e-014
lhumerus -34.4475 -0.52243 75.6047
lradius 42.9957
lwrist 43.3614
lhand -23.8887 -6.52822
lfingers 7.12502
lthumb 2.58485 23.4359
rfemur -26.3696 20.7592 21.8997
rtibia 30.7282
rfoot -20.2369 -7.53572
rtoes -10.3731
lfemur -48.2123 -6.51112 -15.2738
ltibia 30.3511
lfoot -4.87585 6.60137
ltoes -16.8774
261
root 5.5318 15.8402 4.51588 -158.914 6.29913 -177.887
lowerback -15.9211 -0.0601192 -0.509584
upperback -3.39097 0.465804 -0.452212
thorax 5.31343 0.409616 -0.0779812
lowerneck -12.3214 6.81865 11.1746
upperneck 31.2435 10.0357 0.224759
head 13.0874 6.63593 -0.0962244
rclavicle 7.30534e-015 -7.55382e-015
rhumerus -34.7001 0.540479 -80.7333
rradius 31.0643
rwrist -3.35442
rhand -12.8998 -16.2961
rfingers 7.12502
rthumb 13.1898 -45.8588
lclavicle 7.30534e-015 -7.55382e-015
lhumerus -33.995 -0.961118 75.7171
lradius 42.0225
lwrist 43.4284
lhand -23.9292 -6.48498
lfingers 7.12502
lthumb 2.54575 23.4796
rfemur -25.3745 20.9959 22.2457
rtibia 30.0782
rfoot -20.2735 -7.53721
rtoes -10.4195
lfemur -47.8732 -6.53859 -15.1602
ltibia 30.7724
lfoot -4.48798 6.31585
ltoes -14.9141
262
root 5.52502 15.8347 4.42331 -159.126 6.39506 -177.719
lowerback -16.0682 -0.183423 -0.877836
upperback -3.38226 0.381409 -0.615349
thorax 5.40229 0.365964 -0.0577639
lowerneck -12.1308 7.32389 11.8724
upperneck 30.7478 10.603 0.0389032
head 12.9438 6.90122 -0.211493
rclavicle 5.61567e-015 4.77083e-015
rhumerus -35.3251 0.344086 -80.5807
rradius 31.3373
rwrist -3.52635
rhand -13.1725 -16.2559
rfingers 7.12502
rthumb 12.9269 -45.8355
lclavicle 5.61567e-015 4.77083e-015
lhumerus -33.47 -1.41951 75.855
lradius 40.9229
lwrist 43.4793
lhand -23.9296 -6.44408
lfingers 7.12502
lthumb 2.54535 23.5205
rfemur -24.4004 21.2401 22.5235
rtibia 29.5165
rfoot -20.3006 -7.60929
rtoes -10.4887
lfemur -47.5463 -6.62591 -15.0964
ltibia 31.2406
lfoot -4.30488 6.21958
ltoes -13.5147
263
root 5.51913 15.8277 4.33333 -159.366 6.45272 -177.649
lowerback -16.1543 -0.32686 -1.37497
upperback -3.37076 0.293142 -0.78422
thorax 5.46134 0.318605 0.027841
lowerneck -11.8937 7.82817 12.5164
upperneck 30.1894 11.1797 -0.135618
head 12.768 7.16301 -0.315375
rclavicle 2.98177e-016 -1.74931e-014
rhumerus -35.9564 0.0683063 -80.3649
rradius 31.5829
rwrist -3.71541
rhand -13.5206 -16.2142
rfingers 7.12502
rthumb 12.5914 -45.8147
lclavicle 2.98177e-016 -1.74931e-014
lhumerus -32.8776 -1.89365 76.0177
lradius 39.6929
lwrist 43.502
lhand -23.8897 -6.40221
lfingers 7.12502
lthumb 2.58387 23.5619
rfemur -23.493 21.4815 22.7146
rtibia 29.1028
rfoot -20.3532 -7.75398
rtoes -10.5447
lfemur -47.2121 -6.75369 -15.115
ltibia 31.7114
lfoot -4.31247 6.21261
ltoes -12.7288
264
root 5.51467 15.8186 4.24612 -159.634 6.46534 -177.683
lowerback -16.1694 -0.492819 -2.0079
upperback -3.36743 0.199381 -0.957644
thorax 5.47414 0.267599 0.183876
lowerneck -11.5899 8.32202 13.0797
upperneck 29.5673 11.761 -0.288737
head 12.5524 7.41958 -0.402645
rclavicle 6.95746e-016 7.15625e-015
rhumerus -36.6263 -0.279865 -80.0843
rradius 31.8153
rwrist -3.92178
rhand -13.9428 -16.1977
rfingers 7.12502
rthumb 12.1843 -45.8228
lclavicle 6.95746e-016 7.15625e-015
lhumerus -32.2604 -2.41393 76.2104
lradius 38.3804
lwrist 43.5031
lhand -23.8075 -6.29578
lfingers 7.12502
lthumb 2.66328 23.6673
rfemur -22.6664 21.7066 22.8194
rtibia 28.8653
rfoot -20.4438 -7.96841
rtoes -10.5647
lfemur -46.8481 -6.89233 -15.2458
ltibia 32.1517
lfoot -4.46598 6.18543
ltoes -12.3451
